HIERARCHY
ROOT Hips
{
	OFFSET 0.000000 0.000000 0.000000 
	CHANNELS 6 Xposition Yposition Zposition Zrotation Yrotation Xrotation
	JOINT LeftUpLeg
	{
		OFFSET 1.363060 -1.794630 0.839290 
		CHANNELS 3 Zrotation Yrotation Xrotation
		JOINT LeftLeg
		{
			OFFSET 2.448110 -6.726130 0.000000 
			CHANNELS 3 Zrotation Yrotation Xrotation
			JOINT LeftFoot
			{
				OFFSET 2.562200 -7.039590 0.000000 
				CHANNELS 3 Zrotation Yrotation Xrotation
				JOINT LeftToeBase
				{
					OFFSET 0.157640 -0.433110 2.322550 
					CHANNELS 3 Zrotation Yrotation Xrotation
					End Site
					{
						OFFSET 0.000000 0.000000 0.000000 
					}
				}
			}
		}
	}
	JOINT RightUpLeg
	{
		OFFSET -1.305520 -1.794630 0.839290 
		CHANNELS 3 Zrotation Yrotation Xrotation
		JOINT RightLeg
		{
			OFFSET -2.542530 -6.985550 0.000000 
			CHANNELS 3 Zrotation Yrotation Xrotation
			JOINT RightFoot
			{
				OFFSET -2.568260 -7.056230 0.000000 
				CHANNELS 3 Zrotation Yrotation Xrotation
				JOINT RightToeBase
				{
					OFFSET -0.164730 -0.452590 2.363150 
					CHANNELS 3 Zrotation Yrotation Xrotation
					End Site
					{
						OFFSET 0.000000 0.000000 0.000000 
					}
				}
			}
		}
	}
	JOINT Spine
	{
		OFFSET 0.028270 2.035590 -0.193380 
		CHANNELS 3 Zrotation Yrotation Xrotation
		JOINT Spine1
		{
			OFFSET 0.056720 2.048850 -0.042750 
			CHANNELS 3 Zrotation Yrotation Xrotation
			JOINT Neck1
			{
				OFFSET -0.054170 1.746240 0.172020 
				CHANNELS 3 Zrotation Yrotation Xrotation
				JOINT Head
				{
					OFFSET 0.104070 1.761360 -0.123970 
					CHANNELS 3 Zrotation Yrotation Xrotation
					End Site
					{
						OFFSET 0.000000 0.000000 0.000000 
					}
				}
			}
			JOINT LeftArm
			{
				OFFSET 3.362410 1.200890 -0.311210 
				CHANNELS 3 Zrotation Yrotation Xrotation
				JOINT LeftForeArm
				{
					OFFSET 4.983000 -0.000000 -0.000000 
					CHANNELS 3 Zrotation Yrotation Xrotation
					JOINT LeftHand
					{
						OFFSET 3.483560 -0.000000 -0.000000 
						CHANNELS 3 Zrotation Yrotation Xrotation
						JOINT LeftHandIndex1
						{
							OFFSET 0.715260 -0.000000 -0.000000 
							CHANNELS 3 Zrotation Yrotation Xrotation
							End Site
							{
								OFFSET 0.000000 0.000000 0.000000 
							}
						}
					}
				}
			}
			JOINT RightArm
			{
				OFFSET -3.136600 1.374050 -0.404650 
				CHANNELS 3 Zrotation Yrotation Xrotation
				JOINT RightForeArm
				{
					OFFSET -5.241900 -0.000000 -0.000000 
					CHANNELS 3 Zrotation Yrotation Xrotation
					JOINT RightHand
					{
						OFFSET -3.444170 -0.000000 -0.000000 
						CHANNELS 3 Zrotation Yrotation Xrotation
						JOINT RightHandIndex1
						{
							OFFSET -0.622530 -0.000000 -0.000000 
							CHANNELS 3 Zrotation Yrotation Xrotation
							End Site
							{
								OFFSET 0.000000 0.000000 0.000000 
							}
						}
					}
				}
			}
		}
	}
}
MOTION
Frames: 15
Frame Time: 0.041667
-0.770299 18.316412 5.725906 -0.306055 -0.229712 0.923758 -13.564197 -7.491624 -5.613687 0.815345 6.651950 21.825866 -0.838612 7.265571 -13.479780 8.774600 -16.660400 -55.307200 18.369310 4.560420 8.140344 0.424494 0.968052 1.642702 0.251329 -6.789717 -16.256282 -0.177800 2.716200 -7.489500 -8.118443 1.032185 17.373960 0.360965 1.110277 -14.904550 7.368516 -3.842886 21.678536 1.442300 -1.165500 7.108800 -93.163415 11.044726 21.966073 25.788890 -35.008126 -7.184665 0.694808 0.241262 7.113919 -7.125000 0.000000 0.000000 95.844125 -12.806601 16.486778 -31.619084 39.686469 -9.183332 0.702409 -3.316358 20.156461 7.125000 0.000000 0.000000 
-0.771279 18.315824 5.728257 -0.241888 -0.272280 1.049037 -13.565135 -7.521219 -5.638604 0.805998 6.668780 21.813999 -0.847267 7.328788 -13.533815 8.765900 -16.654700 -55.276900 18.393415 4.580822 8.132515 0.424928 0.963354 1.642549 0.239173 -6.739451 -16.278989 -0.162000 2.593600 -7.149200 -8.794808 1.085646 16.466961 0.467906 1.128845 -14.817197 7.517585 -3.921205 21.852621 1.457300 -1.181500 7.108200 -93.053365 11.274283 21.986127 25.808534 -35.000814 -7.190303 0.695610 0.240211 7.129089 -7.125000 0.000000 0.000000 95.961870 -13.026049 16.391947 -31.665102 39.696145 -9.205861 0.701214 -3.315822 20.142605 7.125000 0.000000 0.000000 
-0.771671 18.315628 5.730706 -0.273348 -0.304639 1.054710 -13.525628 -7.529301 -5.623167 0.804038 6.667354 21.805543 -0.844312 7.325367 -13.561414 8.754000 -16.646800 -55.235300 18.438018 4.608361 8.146368 0.425452 0.963719 1.642672 0.241394 -6.752253 -16.279490 -0.159400 2.572400 -7.090300 -8.837833 1.107094 16.424549 0.455279 1.133810 -14.799886 7.515257 -3.884603 21.703795 1.453800 -1.168400 7.060100 -93.026566 11.316159 22.020687 25.841910 -35.030207 -7.205005 0.695096 0.242858 7.066597 -7.125000 0.000000 0.000000 95.994347 -13.039501 16.369727 -31.687311 39.718884 -9.220445 0.702052 -3.317073 20.116332 7.125000 0.000000 0.000000 
-0.772161 18.316216 5.733646 -0.281811 -0.295373 1.095472 -13.507646 -7.499470 -5.658294 0.805797 6.670873 21.808149 -0.833930 7.274422 -13.529572 8.754000 -16.646800 -55.235500 18.455895 4.606104 8.119059 0.426279 0.961946 1.641890 0.248566 -6.794177 -16.281788 -0.164700 2.614900 -7.208300 -8.856811 1.089763 16.230479 0.450875 1.128209 -14.730533 7.826489 -3.860446 21.422802 1.531800 -1.145000 6.976300 -93.031529 11.395399 22.014163 25.878062 -35.059168 -7.221394 0.694707 0.247906 6.993628 -7.125000 0.000000 0.000000 95.986377 -13.110084 16.389939 -31.728503 39.733100 -9.233895 0.706570 -3.313878 20.075522 7.125000 0.000000 0.000000 
-0.772945 18.317196 5.736291 -0.293279 -0.249558 1.161221 -13.495543 -7.497289 -5.718374 0.807756 6.674330 21.812972 -0.827748 7.236296 -13.484019 8.754700 -16.647200 -55.237900 18.464609 4.576372 8.060997 0.426719 0.959464 1.640740 0.256896 -6.836696 -16.272283 -0.171800 2.670200 -7.361900 -8.768221 1.038662 16.061122 0.437229 1.110355 -14.662101 8.110726 -3.868956 21.307292 1.605600 -1.134400 6.941800 -93.078839 11.428012 21.915083 25.882003 -35.058135 -7.222621 0.694149 0.250473 7.036310 -7.125000 0.000000 0.000000 95.943909 -13.163522 16.451700 -31.765523 39.740199 -9.243112 0.712197 -3.309880 20.023132 7.125000 0.000000 0.000000 
-0.772847 18.317294 5.738839 -0.314681 -0.246007 1.194528 -13.476410 -7.513159 -5.744943 0.808874 6.676779 21.819461 -0.825494 7.226250 -13.482242 8.748900 -16.643400 -55.217600 18.487982 4.580533 8.032584 0.427382 0.959454 1.640335 0.265318 -6.879021 -16.265648 -0.180600 2.737400 -7.548400 -8.738439 1.029448 16.090428 0.451813 1.105421 -14.671605 7.643909 -3.852717 21.591357 1.491400 -1.149700 7.012100 -93.112784 11.396931 21.834275 25.865676 -35.039276 -7.212736 0.693041 0.249553 7.110888 -7.125000 0.000000 0.000000 95.953974 -13.146368 16.455185 -31.767415 39.748464 -9.242634 0.713817 -3.309928 20.037111 7.125000 0.000000 0.000000 
-0.772063 18.317098 5.742562 -0.336747 -0.279916 1.175405 -13.455625 -7.467400 -5.732333 0.810456 6.677582 21.824661 -0.828622 7.233723 -13.467075 8.766100 -16.654800 -55.277700 18.512786 4.605946 8.062303 0.427733 0.961109 1.640913 0.265112 -6.881711 -16.273645 -0.183800 2.761100 -7.614400 -8.780799 1.056367 16.195441 0.459604 1.111404 -14.706620 7.187136 -3.827856 21.778053 1.376200 -1.163900 7.058600 -93.114735 11.381473 21.832157 25.871357 -35.045016 -7.212742 0.691489 0.248711 7.112677 -7.125000 0.000000 0.000000 95.981011 -13.122664 16.441563 -31.759141 39.753116 -9.237760 0.714280 -3.310418 20.054986 7.125000 0.000000 0.000000 
-0.771769 18.316706 5.746089 -0.340953 -0.297029 1.143015 -13.454488 -7.401511 -5.708107 0.811456 6.673394 21.819640 -0.829806 7.229188 -13.438671 8.783600 -16.666500 -55.338800 18.511013 4.612711 8.102766 0.427226 0.962199 1.641526 0.258611 -6.847462 -16.277385 -0.180100 2.733300 -7.537100 -8.764962 1.070108 16.291335 0.448508 1.115628 -14.718670 7.227415 -3.826773 21.706457 1.386400 -1.163300 7.041100 -93.122265 11.392039 21.850733 25.903945 -35.079348 -7.226199 0.689669 0.249664 7.093822 -7.125000 0.000000 0.000000 95.969349 -13.117255 16.447832 -31.767835 39.759297 -9.238605 0.719232 -3.309563 20.018544 7.125000 0.000000 0.000000 
-0.772063 18.315824 5.748244 -0.300348 -0.290471 1.117002 -13.500993 -7.374890 -5.684830 0.810114 6.662756 21.801407 -0.826957 7.214327 -13.434141 8.791900 -16.671900 -55.367700 18.456126 4.601837 8.125579 0.426331 0.963014 1.641991 0.247317 -6.795426 -16.297993 -0.172500 2.675200 -7.375700 -8.722385 1.068687 16.452485 0.467693 1.120173 -14.728209 7.327816 -3.801883 21.573325 1.416900 -1.149900 7.012700 -93.167236 11.384341 21.974216 26.119838 -35.291012 -7.307047 0.669264 0.277009 7.210163 -7.125000 0.000000 0.000000 95.940059 -13.107647 16.458229 -31.793281 39.782805 -9.249527 0.724696 -3.308627 19.978928 7.125000 0.000000 0.000000 
-0.771475 18.315824 5.750498 -0.267933 -0.281916 1.113177 -13.548725 -7.376719 -5.663165 0.806533 6.652385 21.778128 -0.827893 7.219749 -13.441737 8.795200 -16.674100 -55.379300 18.401977 4.587990 8.141906 0.425428 0.962417 1.642179 0.233659 -6.739572 -16.332994 -0.162400 2.596500 -7.157200 -8.636142 1.063063 16.499434 0.472929 1.124660 -14.754892 7.431145 -3.788177 21.589334 1.448900 -1.135700 7.021300 -93.274221 11.277601 21.699328 25.929046 -35.111622 -7.223354 0.677608 0.250041 7.359153 -7.125000 0.000000 0.000000 95.907364 -13.117302 16.458327 -31.810638 39.797778 -9.259808 0.726270 -3.308369 19.939946 7.125000 0.000000 0.000000 
-0.771279 18.316412 5.753045 -0.249020 -0.298746 1.146751 -13.579942 -7.340961 -5.671434 0.803126 6.648809 21.761858 -0.834577 7.242966 -13.423128 8.806800 -16.681700 -55.419400 18.377000 4.605168 8.133425 0.425354 0.959597 1.641162 0.235821 -6.750583 -16.329776 -0.164000 2.608900 -7.191700 -8.574306 1.059443 16.296432 0.444252 1.129981 -14.752931 7.991681 -3.868638 21.643365 1.585900 -1.129900 7.035400 -93.389866 11.175673 21.273167 25.667565 -34.861465 -7.110689 0.688587 0.218285 7.664803 -7.125000 0.000000 0.000000 95.890498 -13.152318 16.436989 -31.796410 39.771476 -9.253029 0.724040 -3.308151 19.943311 7.125000 0.000000 0.000000 
-0.771965 18.316706 5.755887 -0.230969 -0.327669 1.147802 -13.587318 -7.308407 -5.674256 0.802551 6.647578 21.758045 -0.839373 7.261045 -13.416205 8.821700 -16.691600 -55.471500 18.376487 4.636773 8.128643 0.426242 0.960486 1.640850 0.247990 -6.805796 -16.308634 -0.176900 2.709100 -7.469800 -8.674209 1.070890 16.337496 0.465024 1.133301 -14.737521 8.271732 -3.899528 21.527890 1.640500 -1.122200 7.010600 -93.351914 11.242143 21.366832 25.745260 -34.939644 -7.152361 0.690671 0.224055 7.535257 -7.125000 0.000000 0.000000 95.941079 -13.117848 16.390177 -31.752006 39.744752 -9.234349 0.716130 -3.310144 20.054483 7.125000 0.000000 0.000000 
-0.772455 18.316804 5.758630 -0.222265 -0.337027 1.114119 -13.573849 -7.342507 -5.644732 0.803294 6.646790 21.762230 -0.836555 7.259673 -13.455671 8.816000 -16.687900 -55.451700 18.389066 4.644793 8.138124 0.427267 0.964580 1.641843 0.253726 -6.837770 -16.313155 -0.183000 2.755500 -7.598700 -8.880461 1.086266 16.613089 0.572947 1.133096 -14.757327 7.540514 -3.793694 21.552737 1.440900 -1.113200 7.014900 -93.255020 11.330240 21.647354 25.918325 -35.102291 -7.236164 0.690783 0.237876 7.205606 -7.125000 0.000000 0.000000 96.018404 -13.041608 16.355423 -31.698086 39.740592 -9.217290 0.704101 -3.315138 20.196146 7.125000 0.000000 0.000000 
-0.771965 18.316706 5.761275 -0.210012 -0.342739 1.111721 -13.569490 -7.332339 -5.638808 0.804490 6.650538 21.768636 -0.833428 7.247473 -13.454181 8.822100 -16.691900 -55.473000 18.391433 4.644203 8.148337 0.427494 0.965775 1.642414 0.252580 -6.832285 -16.315758 -0.179700 2.730800 -7.530200 -9.067657 1.105601 16.617484 0.636033 1.138776 -14.780493 7.088745 -3.745145 21.731196 1.325800 -1.114300 7.058300 -93.276753 11.251598 21.477326 25.837035 -35.023061 -7.197873 0.692113 0.229973 7.376267 -7.125000 0.000000 0.000000 96.079146 -13.049176 16.330358 -31.687053 39.748121 -9.215760 0.699802 -3.317297 20.227088 7.125000 0.000000 0.000000 
-0.771769 18.316510 5.764117 -0.236298 -0.353505 1.120078 -13.532940 -7.339466 -5.620943 0.804393 6.656703 21.775360 -0.828562 7.237522 -13.481146 8.807300 -16.682100 -55.421200 18.430210 4.638173 8.182484 0.427403 0.965655 1.642937 0.251379 -6.820286 -16.304702 -0.184000 2.762600 -7.618400 -9.140725 1.137713 16.473182 0.572000 1.146708 -14.803128 7.339439 -3.817723 21.916806 1.395200 -1.129400 7.113700 -93.281013 11.200068 21.323735 25.731233 -34.930469 -7.149942 0.693426 0.221516 7.580571 -7.125000 0.000000 0.000000 96.145881 -13.108996 16.289271 -31.729144 39.776392 -9.234292 0.706416 -3.316416 20.133958 7.125000 0.000000 0.000000 
